<?xml version="1.0" encoding="UTF-8" standalone="no"?>
<!-- Created with Inkscape (http://www.inkscape.org/) -->
<svg xmlns:dc="http://purl.org/dc/elements/1.1/" xmlns:cc="http://creativecommons.org/ns#" xmlns:rdf="http://www.w3.org/1999/02/22-rdf-syntax-ns#" xmlns:svg="http://www.w3.org/2000/svg" xmlns="http://www.w3.org/2000/svg" xmlns:sodipodi="http://sodipodi.sourceforge.net/DTD/sodipodi-0.dtd" xmlns:inkscape="http://www.inkscape.org/namespaces/inkscape" width="112.8019" height="25" id="svg2" version="1.1" inkscape:version="0.48.5 r10040" inkscape:export-filename="C:\Users\Bastian\Desktop\l1.png" inkscape:export-xdpi="800" inkscape:export-ydpi="800" viewBox="0 0 112.80189 25" preserveAspectRatio="xMinYMin slice" sodipodi:docname="type2.svg"><script xmlns=""/>
  <defs id="defs4"/>
  <sodipodi:namedview id="base" pagecolor="#ffffff" bordercolor="#666666" borderopacity="1.0" inkscape:pageopacity="0.0" inkscape:pageshadow="2" inkscape:zoom="8.49" inkscape:cx="46.23203" inkscape:cy="0.93574832" inkscape:document-units="px" inkscape:current-layer="layer1" showgrid="true" inkscape:snap-bbox="false" inkscape:bbox-paths="false" inkscape:bbox-nodes="false" inkscape:snap-bbox-midpoints="false" inkscape:snap-bbox-edge-midpoints="false" inkscape:snap-global="false" inkscape:snap-grids="true" inkscape:snap-to-guides="true" inkscape:window-width="1920" inkscape:window-height="1058" inkscape:window-x="-8" inkscape:window-y="-8" inkscape:window-maximized="1" fit-margin-top="0" fit-margin-left="0" fit-margin-right="0" fit-margin-bottom="0">
    <inkscape:grid type="xygrid" id="grid2989" empspacing="5" visible="true" enabled="true" snapvisiblegridlinesonly="true" spacingy="5px" spacingx="5px" originx="-14.198106px" originy="-3.4140412e-005px"/>
  </sodipodi:namedview>
  <metadata id="metadata7">
    <rdf:RDF>
      <cc:Work rdf:about="">
        <dc:format>image/svg+xml</dc:format>
        <dc:type rdf:resource="http://purl.org/dc/dcmitype/StillImage"/>
        <dc:title/>
      </cc:Work>
    </rdf:RDF>
  </metadata>
  <g inkscape:label="Ebene 1" inkscape:groupmode="layer" id="layer1" transform="translate(-14.198106,-1027.3622)">
    <g style="font-size:20.14756583999999900px;font-style:normal;font-variant:normal;font-weight:normal;font-stretch:normal;line-height:125%;letter-spacing:0px;word-spacing:0px;fill:#ffffff;fill-opacity:1;stroke:none;font-family:monospace;-inkscape-font-specification:monospace" id="text2985">
      <path d="m 20.887113,1038.6785 c -0.08076,0.148 -0.204959,0.222 -0.372602,0.222 -0.100843,0 -0.215103,-0.037 -0.342782,-0.111 -0.127691,-0.074 -0.283864,-0.1562 -0.468519,-0.2468 -0.184667,-0.091 -0.40458,-0.1745 -0.659739,-0.2518 -0.25517,-0.077 -0.557371,-0.1159 -0.906604,-0.1159 -0.302103,0 -0.574074,0.039 -0.815912,0.1159 -0.241847,0.077 -0.448438,0.183 -0.619774,0.3172 -0.171343,0.1343 -0.302307,0.2904 -0.392892,0.4683 -0.09059,0.1779 -0.135886,0.3709 -0.135883,0.5792 -3e-6,0.2619 0.07552,0.4802 0.226574,0.6548 0.151046,0.1746 0.350874,0.3257 0.599483,0.4534 0.248603,0.1277 0.530718,0.2402 0.846348,0.3376 0.315621,0.097 0.639649,0.2015 0.972086,0.3123 0.332426,0.1109 0.656454,0.2335 0.972085,0.3677 0.315619,0.1343 0.597632,0.3021 0.846041,0.5036 0.248394,0.2014 0.448221,0.4483 0.599483,0.7406 0.151247,0.2922 0.226874,0.6431 0.226882,1.0526 -8e-6,0.4702 -0.08404,0.9051 -0.252091,1.3047 -0.168068,0.3997 -0.416571,0.7455 -0.745512,1.0376 -0.328953,0.292 -0.731888,0.522 -1.208804,0.6899 -0.476928,0.1678 -1.02753,0.2517 -1.651808,0.2517 -0.712005,0 -1.356783,-0.1158 -1.934334,-0.3474 -0.577555,-0.2315 -1.067799,-0.5287 -1.470733,-0.8915 l 0.423021,-0.6849 c 0.0537,-0.087 0.117436,-0.1546 0.19122,-0.2017 0.07378,-0.047 0.171133,-0.071 0.292056,-0.071 0.120919,0 0.248604,0.047 0.383054,0.1411 0.134446,0.094 0.297383,0.1982 0.48881,0.3123 0.191422,0.1142 0.42312,0.2183 0.695093,0.3124 0.271968,0.094 0.6127,0.1411 1.022197,0.1411 0.349233,0 0.654815,-0.045 0.916748,-0.1359 0.261923,-0.091 0.480196,-0.2131 0.654821,-0.3677 0.174613,-0.1545 0.303937,-0.3325 0.387973,-0.534 0.08402,-0.2014 0.126039,-0.4163 0.126046,-0.6447 -7e-6,-0.282 -0.07563,-0.5153 -0.226882,-0.7 -0.15126,-0.1846 -0.351088,-0.3424 -0.599484,-0.4734 -0.248406,-0.131 -0.532161,-0.2451 -0.851266,-0.3425 -0.319114,-0.097 -0.644884,-0.1998 -0.977312,-0.3074 -0.332435,-0.1076 -0.658103,-0.2303 -0.977004,-0.368 -0.318907,-0.1377 -0.602663,-0.3106 -0.851267,-0.5186 -0.248608,-0.208 -0.448436,-0.4648 -0.599484,-0.7704 -0.15105,-0.3056 -0.226575,-0.6767 -0.226574,-1.1132 -1e-6,-0.3898 0.08065,-0.7644 0.241946,-1.1237 0.161295,-0.3593 0.396375,-0.6749 0.705238,-0.9469 0.30886,-0.2719 0.688225,-0.4884 1.138097,-0.6496 0.449865,-0.161 0.963576,-0.2416 1.541134,-0.2416 0.671826,0 1.274691,0.1058 1.808595,0.3173 0.533892,0.2115 0.995546,0.5019 1.384961,0.8712 z" style="fill:#ffffff;font-family:Lato;-inkscape-font-specification:Lato;fill-opacity:1" id="path2989" inkscape:connector-curvature="0"/>
      <path d="m 25.774595,1036.9963 0,10.2047 -1.792917,0 0,-10.2047 z m 0.40273,-3.2034 c -4e-6,0.1746 -0.03525,0.3375 -0.105755,0.4885 -0.07051,0.1511 -0.164477,0.2854 -0.281911,0.403 -0.117441,0.1177 -0.253426,0.21 -0.407956,0.277 -0.154537,0.067 -0.319113,0.1006 -0.493729,0.1006 -0.174621,0 -0.337455,-0.034 -0.488502,-0.1006 -0.151051,-0.067 -0.285294,-0.1593 -0.40273,-0.277 -0.117439,-0.1176 -0.209769,-0.2519 -0.276992,-0.403 -0.06723,-0.151 -0.100838,-0.3139 -0.100836,-0.4885 -2e-6,-0.1746 0.03361,-0.3408 0.100836,-0.4986 0.06722,-0.1578 0.159553,-0.2956 0.276992,-0.4132 0.117436,-0.1176 0.251679,-0.21 0.40273,-0.277 0.151047,-0.067 0.313881,-0.1005 0.488502,-0.1005 0.174616,0 0.339192,0.034 0.493729,0.1005 0.15453,0.067 0.290515,0.1594 0.407956,0.277 0.117434,0.1176 0.211404,0.2554 0.281911,0.4132 0.0705,0.1578 0.105751,0.324 0.105755,0.4986 z" style="fill:#ffffff;font-family:Lato;-inkscape-font-specification:Lato;fill-opacity:1" id="path2991" inkscape:connector-curvature="0"/>
      <path d="m 28.934949,1047.201 0,-10.2047 1.068003,0 c 0.254957,0 0.416049,0.1242 0.483276,0.3726 l 0.130964,1.0477 c 0.376288,-0.4632 0.797771,-0.8425 1.264449,-1.1381 0.46667,-0.2955 1.008869,-0.4433 1.626599,-0.4433 0.69191,0 1.25112,0.1914 1.677632,0.5743 0.426496,0.3828 0.733616,0.8999 0.92136,1.5513 0.141408,-0.3694 0.327913,-0.6884 0.559518,-0.9571 0.231586,-0.2686 0.491772,-0.4903 0.780558,-0.6649 0.288767,-0.1746 0.595989,-0.3022 0.921668,-0.3828 0.325656,-0.08 0.656551,-0.1208 0.992683,-0.1208 0.536961,0 1.015317,0.086 1.435071,0.2567 0.419727,0.1712 0.775728,0.4213 1.068003,0.7504 0.292247,0.3292 0.515541,0.7339 0.669885,1.2141 0.154313,0.4802 0.231477,1.0291 0.231492,1.6469 l 0,6.4977 -1.792916,0 0,-6.4977 c -1.4e-5,-0.7989 -0.174633,-1.405 -0.523857,-1.8182 -0.34925,-0.4131 -0.8563,-0.6197 -1.521151,-0.6197 -0.295551,0 -0.575925,0.052 -0.841121,0.1561 -0.265218,0.1042 -0.498555,0.257 -0.700013,0.4584 -0.201477,0.2015 -0.361032,0.455 -0.478664,0.7606 -0.117652,0.3056 -0.176473,0.6598 -0.176464,1.0628 l 0,6.4977 -1.792917,0 0,-6.4977 c -7e-6,-0.8194 -0.164583,-1.4306 -0.493728,-1.8335 -0.329159,-0.403 -0.80936,-0.6044 -1.440605,-0.6044 -0.443111,0 -0.854448,0.1193 -1.234014,0.3578 -0.379574,0.2386 -0.727172,0.5626 -1.042794,0.9721 l 0,7.6057 z" style="fill:#ffffff;font-family:Lato;-inkscape-font-specification:Lato;fill-opacity:1" id="path2993" inkscape:connector-curvature="0"/>
      <path d="m 47.013528,1036.9963 0,6.5076 c -3e-6,0.7723 0.177997,1.37 0.534002,1.7933 0.355997,0.4232 0.893277,0.6348 1.611842,0.6348 0.52385,0 1.017476,-0.1243 1.480878,-0.3729 0.463388,-0.2486 0.88979,-0.5945 1.279205,-1.0376 l 0,-7.5252 1.793532,0 0,10.2047 -1.068003,0 c -0.255378,0 -0.416675,-0.1242 -0.483891,-0.3726 l -0.140801,-1.0981 c -0.443113,0.4903 -0.940018,0.8848 -1.490716,1.1836 -0.550711,0.2988 -1.182064,0.4482 -1.894061,0.4482 -0.557472,0 -1.049458,-0.092 -1.475959,-0.277 -0.426507,-0.1846 -0.784147,-0.4448 -1.072922,-0.7805 -0.288778,-0.3357 -0.50531,-0.742 -0.649594,-1.219 -0.144287,-0.4769 -0.21643,-1.0041 -0.216429,-1.5817 l 0,-6.5076 z" style="fill:#ffffff;font-family:Lato;-inkscape-font-specification:Lato;fill-opacity:1" id="path2995" inkscape:connector-curvature="0"/>
      <path d="m 58.671793,1032.3621 0,14.8389 -1.792917,0 0,-14.8389 z" style="fill:#ffffff;font-family:Lato;-inkscape-font-specification:Lato;fill-opacity:1" id="path2997" inkscape:connector-curvature="0"/>
      <path d="m 69.327226,1047.201 -0.796237,0 c -0.174626,0 -0.315633,-0.027 -0.42302,-0.081 -0.107402,-0.054 -0.177905,-0.1679 -0.21151,-0.3425 l -0.201058,-0.9468 c -0.268903,0.2418 -0.530934,0.4583 -0.786092,0.6495 -0.255171,0.1913 -0.523759,0.3524 -0.805767,0.4833 -0.282019,0.131 -0.58258,0.2301 -0.901685,0.2973 -0.319114,0.067 -0.673372,0.1008 -1.062776,0.1008 -0.39638,0 -0.767445,-0.055 -1.113195,-0.1663 -0.345756,-0.1109 -0.646215,-0.2771 -0.901377,-0.4986 -0.255167,-0.2216 -0.458376,-0.5019 -0.609629,-0.8411 -0.151255,-0.3392 -0.226883,-0.7404 -0.226882,-1.2036 -1e-6,-0.403 0.110878,-0.7908 0.332637,-1.1636 0.221756,-0.3728 0.579396,-0.7036 1.072922,-0.9924 0.49352,-0.2888 1.139937,-0.5255 1.939252,-0.7102 0.799306,-0.1846 1.776515,-0.2903 2.931628,-0.3169 l 0,-0.7963 c -7e-6,-0.7923 -0.169604,-1.3917 -0.508792,-1.7981 -0.339201,-0.4064 -0.84123,-0.6096 -1.506087,-0.6096 -0.436552,0 -0.804235,0.055 -1.10305,0.1663 -0.298823,0.1109 -0.557369,0.2352 -0.775639,0.3729 -0.218277,0.1377 -0.40632,0.2619 -0.56413,0.3726 -0.157815,0.1107 -0.313988,0.166 -0.468519,0.166 -0.120924,0 -0.226679,-0.032 -0.317265,-0.096 -0.09059,-0.064 -0.162939,-0.1425 -0.217044,-0.2364 l -0.322184,-0.5743 c 0.564025,-0.5439 1.171808,-0.9502 1.823352,-1.2189 0.651538,-0.2687 1.373479,-0.4031 2.165827,-0.4031 0.570989,0 1.078141,0.094 1.521458,0.2822 0.443303,0.1882 0.816007,0.4501 1.118114,0.7858 0.30209,0.3357 0.530406,0.7421 0.684948,1.219 0.154525,0.4769 0.231791,1.0007 0.2318,1.5712 z m -4.654451,-1.0981 c 0.315621,0 0.604397,-0.032 0.86633,-0.096 0.261923,-0.064 0.508787,-0.1544 0.740593,-0.2721 0.231794,-0.1176 0.453449,-0.2604 0.664966,-0.4282 0.211503,-0.1679 0.418094,-0.3592 0.619773,-0.574 l 0,-2.1255 c -0.826371,0.027 -1.52833,0.092 -2.105878,0.1961 -0.577558,0.1041 -1.047614,0.2402 -1.410169,0.4083 -0.362563,0.168 -0.626131,0.3662 -0.790704,0.5945 -0.164579,0.2284 -0.246867,0.4835 -0.246864,0.7655 -3e-6,0.2685 0.04365,0.5001 0.130964,0.6948 0.08731,0.1947 0.204846,0.3543 0.352619,0.4787 0.147767,0.1244 0.322386,0.2151 0.523857,0.2721 0.201463,0.057 0.419634,0.085 0.654513,0.085 z" style="fill:#ffffff;font-family:Lato;-inkscape-font-specification:Lato;fill-opacity:1" id="path2999" inkscape:connector-curvature="0"/>
      <path d="m 75.156051,1047.3621 c -0.805873,0 -1.425442,-0.2249 -1.858706,-0.6748 -0.43327,-0.4498 -0.649904,-1.098 -0.649902,-1.9444 l 0,-6.2457 -1.229095,0 c -0.107395,0 -0.197984,-0.032 -0.271766,-0.096 -0.07378,-0.064 -0.110674,-0.1629 -0.110674,-0.2973 l 0,-0.7151 1.672406,-0.2115 0.412567,-3.153 c 0.01353,-0.1008 0.05728,-0.1831 0.131272,-0.2469 0.07398,-0.064 0.167955,-0.096 0.281911,-0.096 l 0.906911,0 0,3.5158 2.921176,0 0,1.2992 -2.921176,0 0,6.1251 c -4e-6,0.4296 0.104009,0.7485 0.312039,0.9568 0.208021,0.2082 0.47661,0.3123 0.805767,0.3123 0.188141,0 0.351077,-0.025 0.48881,-0.076 0.137722,-0.05 0.256901,-0.1059 0.357538,-0.1663 0.100625,-0.061 0.186192,-0.1158 0.256702,-0.166 0.0705,-0.05 0.132597,-0.075 0.186301,-0.075 0.09427,0 0.178301,0.057 0.25209,0.171 l 0.523857,0.8565 c -0.309074,0.2885 -0.681881,0.5151 -1.118421,0.6797 -0.436553,0.1646 -0.886421,0.2468 -1.349607,0.2468 z" style="fill:#ffffff;font-family:Lato;-inkscape-font-specification:Lato;fill-opacity:1" id="path3001" inkscape:connector-curvature="0"/>
      <path d="m 83.709914,1036.8352 c 0.745197,0 1.41836,0.1242 2.019491,0.3726 0.601115,0.2484 1.111546,0.601 1.531296,1.0579 0.419731,0.4568 0.74212,1.0093 0.967167,1.6573 0.225026,0.6481 0.337544,1.3716 0.337555,2.1705 -1.1e-5,0.8058 -0.112529,1.5311 -0.337555,2.1759 -0.225047,0.6448 -0.547436,1.1955 -0.967167,1.6521 -0.41975,0.4567 -0.930181,0.8075 -1.531296,1.0527 -0.601131,0.2451 -1.274294,0.3677 -2.019491,0.3677 -0.745619,0 -1.418987,-0.1226 -2.020106,-0.3677 -0.601126,-0.2452 -1.113197,-0.596 -1.536215,-1.0527 -0.423022,-0.4566 -0.74869,-1.0073 -0.977005,-1.6521 -0.228317,-0.6448 -0.342475,-1.3701 -0.342474,-2.1759 -10e-7,-0.7989 0.114157,-1.5224 0.342474,-2.1705 0.228315,-0.648 0.553983,-1.2005 0.977005,-1.6573 0.423018,-0.4569 0.935089,-0.8095 1.536215,-1.0579 0.601119,-0.2484 1.274487,-0.3726 2.020106,-0.3726 z m 0,9.1066 c 1.007125,0 1.759195,-0.3374 2.25621,-1.0123 0.496999,-0.6749 0.745503,-1.6168 0.745511,-2.8256 -8e-6,-1.2158 -0.248512,-2.1627 -0.745511,-2.8409 -0.497015,-0.6782 -1.249085,-1.0173 -2.25621,-1.0173 -0.510745,0 -0.954157,0.087 -1.330239,0.2619 -0.37609,0.1746 -0.689973,0.4264 -0.94165,0.7554 -0.251684,0.3289 -0.439727,0.7335 -0.56413,1.2137 -0.124408,0.4802 -0.186611,1.0226 -0.186608,1.6272 -3e-6,0.6042 0.0622,1.1448 0.186608,1.6217 0.124403,0.4769 0.312446,0.8782 0.56413,1.2039 0.251677,0.3256 0.56556,0.5758 0.94165,0.7504 0.376082,0.1746 0.819494,0.2619 1.330239,0.2619 z" style="fill:#ffffff;font-family:Lato;-inkscape-font-specification:Lato;fill-opacity:1" id="path3003" inkscape:connector-curvature="0"/>
      <path d="m 90.794269,1047.201 0,-10.2047 1.027422,0 c 0.194702,0 0.329047,0.037 0.403038,0.1107 0.07398,0.074 0.1243,0.2015 0.150947,0.383 l 0.121126,1.5913 c 0.349234,-0.7116 0.780759,-1.2672 1.294577,-1.6669 0.513809,-0.3996 1.116469,-0.5995 1.807981,-0.5995 0.282007,0 0.537171,0.032 0.765494,0.096 0.228309,0.064 0.440024,0.1528 0.635146,0.2672 l -0.231801,1.3398 c -0.04715,0.168 -0.151261,0.2521 -0.312346,0.252 -0.09428,10e-5 -0.238776,-0.032 -0.433473,-0.096 -0.19471,-0.064 -0.466681,-0.096 -0.815912,-0.096 -0.624288,0 -1.1463,0.1814 -1.566036,0.5442 -0.419745,0.3627 -0.770826,0.8899 -1.053246,1.5814 l 0,6.4977 z" style="fill:#ffffff;font-family:Lato;-inkscape-font-specification:Lato;fill-opacity:1" id="path3005" inkscape:connector-curvature="0"/>
    </g>
    <rect style="fill:#333333;fill-opacity:1" id="rect2991" width="25" height="25" x="102" y="1027.3622"/>
    <g style="font-size:20px;font-style:normal;font-variant:normal;font-weight:normal;font-stretch:normal;line-height:0%;letter-spacing:0px;word-spacing:0px;fill:#000000;fill-opacity:1;stroke:none;font-family:monospace;-inkscape-font-specification:monospace" id="text2997" transform="translate(1.7767856,0.13392857)">
      <path d="m 107.1028,1046.8572 -2.80844,0 0,-13.0139 2.80844,0 z" style="font-size:18px;font-weight:bold;line-height:0%;fill:#00aa00;fill-opacity:1;font-family:Lato;-inkscape-font-specification:Lato Bold" id="path4014" inkscape:connector-curvature="0"/>
      <path d="m 122.14056,1040.35 c -2e-5,0.954 -0.15904,1.8374 -0.47708,2.6504 -0.31807,0.813 -0.76512,1.5166 -1.34116,2.1108 -0.57606,0.5942 -1.26902,1.0577 -2.07889,1.3906 -0.80988,0.3329 -1.70682,0.4993 -2.69083,0.4993 -0.98401,0 -1.88251,-0.1664 -2.69549,-0.4993 -0.81299,-0.3329 -1.50907,-0.7964 -2.08823,-1.3906 -0.57916,-0.5942 -1.02768,-1.2978 -1.34555,-2.1108 -0.31787,-0.813 -0.47681,-1.6964 -0.4768,-2.6504 -10e-6,-0.954 0.15893,-1.8375 0.4768,-2.6505 0.31787,-0.813 0.76639,-1.5164 1.34555,-2.1104 0.57916,-0.594 1.27524,-1.0575 2.08823,-1.3904 0.81298,-0.3328 1.71148,-0.4993 2.69549,-0.4993 0.98401,0 1.88095,0.168 2.69083,0.504 0.80987,0.336 1.50283,0.7994 2.07889,1.3903 0.57604,0.5909 1.02309,1.2928 1.34116,2.1058 0.31804,0.813 0.47706,1.6965 0.47708,2.6505 z m -2.90522,0.02 c -10e-6,-0.6425 -0.0852,-1.219 -0.25544,-1.7295 -0.17031,-0.5104 -0.4148,-0.9439 -0.73345,-1.3005 -0.31868,-0.3565 -0.70626,-0.6292 -1.16274,-0.8181 -0.4565,-0.1888 -0.97093,-0.2833 -1.54331,-0.2833 -0.57272,0 -1.08864,0.095 -1.54776,0.2833 -0.45912,0.1889 -0.84943,0.4616 -1.17089,0.8181 -0.32148,0.3566 -0.56868,0.7901 -0.74161,1.3005 -0.17294,0.5105 -0.25941,1.087 -0.2594,1.7295 -1e-5,0.6428 0.0864,1.2195 0.2594,1.73 0.17293,0.5104 0.42013,0.9426 0.74161,1.2962 0.32146,0.3537 0.71177,0.6251 1.17089,0.8142 0.45912,0.1891 0.97504,0.2836 1.54776,0.2836 0.57238,0 1.08681,-0.094 1.54331,-0.2836 0.45648,-0.1891 0.84406,-0.4605 1.16274,-0.8142 0.31865,-0.3536 0.56314,-0.7858 0.73345,-1.2962 0.17028,-0.5105 0.25543,-1.0872 0.25544,-1.73 z" style="font-size:18px;font-weight:bold;line-height:0%;fill:#00aa00;fill-opacity:1;font-family:Lato;-inkscape-font-specification:Lato Bold" id="path4016" inkscape:connector-curvature="0" sodipodi:nodetypes="cccssssscsscsscccccccsscccsccscccc"/>
    </g>
  </g>
</svg>